<svg xmlns="http://www.w3.org/2000/svg" width="262" height="320"><defs><clipPath id="clip-path"><path id="矩形_2567" data-name="矩形 2567" transform="translate(0 130)" fill="#fff" stroke="#707070" d="M0 0h262v320H0z"/></clipPath><style>.cls-3{fill:#f4f6fd}</style></defs><g id="六边形" transform="translate(0 -130)" clip-path="url(#clip-path)"><g id="_6边形-装饰" data-name="6边形-装饰" transform="translate(-224.006 -30.857)"><g id="组_1258" data-name="组 1258" transform="rotate(8 14951.875 -9904.533)"><path id="多边形_7" data-name="多边形 7" class="cls-3" d="M160.929 0a20 20 0 0117.338 10.031l46 80a20 20 0 010 19.939l-46 80A20 20 0 01160.929 200H69.071a20 20 0 01-17.338-10.031l-46-80a20 20 0 010-19.939l46-80A20 20 0 0169.071 0z" transform="rotate(14.98 -6902.33 7233.51)"/><path id="多边形_8" data-name="多边形 8" class="cls-3" d="M160.929 0a20 20 0 0117.338 10.031l46 80a20 20 0 010 19.939l-46 80A20 20 0 01160.929 200H69.071a20 20 0 01-17.338-10.031l-46-80a20 20 0 010-19.939l46-80A20 20 0 0169.071 0z" transform="rotate(14.98 -7385.544 7876.095)"/><path id="多边形_9" data-name="多边形 9" class="cls-3" d="M160.929 0a20 20 0 0117.338 10.031l46 80a20 20 0 010 19.939l-46 80A20 20 0 01160.929 200H69.071a20 20 0 01-17.338-10.031l-46-80a20 20 0 010-19.939l46-80A20 20 0 0169.071 0z" transform="rotate(14.98 -6582.035 7967.526)"/></g></g></g></svg>